<svg id="svg" version="1.1" xmlns="http://www.w3.org/2000/svg" xmlns:xlink="http://www.w3.org/1999/xlink" width="400" height="400" viewBox="0, 0, 400,400"><g id="svgg"><path id="path0" d="M194.708 25.413 C 191.271 26.650,190.419 27.586,185.809 35.186 C 172.486 57.152,165.591 72.198,161.525 88.183 C 156.708 107.119,149.734 151.589,151.581 151.589 C 152.043 151.589,152.893 153.375,152.893 154.344 C 152.893 155.945,153.974 155.278,156.148 152.335 C 163.616 142.224,174.339 134.233,183.119 132.236 L 185.439 131.708 188.482 132.895 C 192.910 134.624,195.454 134.646,196.348 132.964 L 196.978 131.780 195.654 129.541 C 190.801 121.334,188.415 107.819,188.869 91.117 C 189.557 65.816,194.043 39.094,199.235 29.360 C 201.439 25.228,199.622 23.645,194.708 25.413 M202.010 53.029 C 201.269 53.771,202.778 58.453,203.898 58.882 C 204.172 58.988,204.327 59.187,204.242 59.325 C 204.157 59.463,204.665 60.470,205.372 61.563 C 207.794 65.311,208.044 66.085,208.803 72.209 C 209.691 79.369,210.064 88.143,210.079 102.200 L 210.095 116.544 209.201 119.737 C 208.245 123.153,208.268 123.865,209.402 125.933 C 210.427 127.802,211.854 128.549,213.944 128.311 C 216.312 128.040,216.517 128.042,223.472 128.407 C 230.514 128.776,233.854 129.470,239.059 131.645 C 242.939 133.266,243.274 133.101,242.409 129.991 C 241.513 126.769,239.202 122.683,233.224 113.750 C 226.057 103.042,226.296 103.629,218.590 77.751 C 214.446 63.835,213.604 61.829,210.119 57.576 C 207.824 54.775,202.980 52.059,202.010 53.029 M196.577 157.923 C 171.089 163.588,161.924 202.437,180.947 224.176 C 200.881 246.956,233.351 227.852,232.012 194.132 C 231.094 171.008,214.410 153.959,196.577 157.923 " stroke="none" fill="#cb9314" fill-rule="evenodd"></path><path id="path1" d="M222.546 143.703 C 221.207 145.193,221.850 145.740,231.622 151.421 C 258.058 166.792,263.206 172.955,267.137 193.938 C 273.734 229.151,261.125 254.096,229.244 268.904 C 199.947 282.512,173.760 275.017,157.636 248.411 C 140.517 220.164,138.076 191.135,151.914 180.388 C 154.472 178.402,154.384 176.755,151.791 178.091 C 150.230 178.895,146.523 179.181,146.268 178.517 C 145.950 177.689,145.475 177.845,139.987 180.577 C 122.019 189.520,109.614 201.148,103.831 214.469 C 86.159 255.183,87.616 289.396,108.194 316.869 C 124.061 338.051,143.480 352.944,158.924 355.777 C 160.359 356.040,163.252 356.704,165.353 357.252 C 211.485 369.295,253.496 352.958,288.466 309.377 C 301.529 293.098,308.492 257.622,303.376 233.409 C 297.225 204.295,290.298 187.768,277.160 170.858 C 274.275 167.144,270.006 162.252,269.335 161.890 C 269.033 161.727,265.265 159.292,260.962 156.479 C 246.688 147.150,242.995 145.537,232.274 143.951 C 225.920 143.012,223.230 142.943,222.546 143.703 " stroke="none" fill="#136bbb" fill-rule="evenodd"></path><path id="path2" d="M190.351 3.917 C 182.686 5.802,175.278 10.961,170.928 17.441 C 163.966 27.813,152.813 48.495,147.547 60.799 C 141.271 75.460,136.668 95.067,132.169 126.294 C 129.191 146.965,128.967 154.447,131.178 159.444 C 131.360 159.855,130.437 160.491,126.747 162.497 C 107.145 173.155,92.311 187.353,85.244 202.220 C 67.603 239.332,65.098 278.859,78.435 309.683 C 89.660 335.629,121.016 366.390,144.575 374.569 C 147.603 375.620,162.719 379.227,169.030 380.405 C 214.697 388.925,256.364 374.887,291.455 339.160 C 312.856 317.372,319.852 303.880,324.682 275.078 C 326.174 266.182,326.324 263.907,326.324 250.243 C 326.324 235.737,326.147 234.043,323.396 222.331 C 316.608 193.430,309.423 177.039,295.243 158.109 C 288.804 149.512,285.248 146.276,274.002 138.783 L 264.222 132.266 264.027 128.480 C 263.673 121.598,261.231 116.125,253.028 103.830 C 245.911 93.163,246.272 94.020,239.977 72.832 C 233.515 51.086,229.508 43.683,220.916 37.620 L 219.991 36.967 220.753 34.539 C 221.943 30.751,221.882 22.371,220.640 18.962 C 216.302 7.054,203.482 0.686,190.351 3.917 M199.764 25.283 C 200.752 25.975,200.679 27.057,199.504 29.140 C 193.953 38.975,189.027 69.981,189.036 95.029 C 189.041 110.749,191.239 121.879,195.863 129.600 L 197.187 131.811 196.562 133.037 C 195.530 135.060,194.211 135.070,188.648 133.098 C 180.390 130.170,167.077 138.125,156.283 152.437 C 153.883 155.618,152.742 156.234,152.718 154.360 C 152.699 152.902,152.297 152.006,151.578 151.818 C 150.621 151.568,150.827 148.978,153.089 132.844 C 159.858 84.565,166.120 66.348,187.994 31.298 C 191.305 25.993,196.782 23.194,199.764 25.283 M204.499 53.025 C 211.998 56.901,213.539 59.958,221.321 86.408 C 225.905 101.985,226.694 103.757,233.750 114.323 C 239.749 123.307,242.439 128.282,242.759 130.988 C 243.023 133.219,242.665 133.314,239.352 131.896 C 236.556 130.699,233.470 129.727,230.481 129.102 C 227.947 128.572,215.898 128.100,214.870 128.491 C 210.718 130.070,207.315 125.123,208.970 119.915 C 211.296 112.593,209.856 70.063,207.101 64.736 C 206.816 64.185,205.800 62.522,204.844 61.039 C 200.570 54.414,200.420 50.917,204.499 53.025 M313.462 132.600 C 313.707 133.631,314.270 135.501,314.712 136.756 L 315.518 139.038 315.542 135.860 L 315.566 132.681 314.751 132.681 C 314.063 132.681,313.936 132.529,313.936 131.703 C 313.936 131.079,313.770 130.725,313.476 130.725 C 313.082 130.725,313.080 130.993,313.462 132.600 M230.677 143.585 C 240.572 144.890,246.216 146.887,253.991 151.833 C 271.292 162.839,271.038 162.628,278.071 171.824 C 290.882 188.575,297.297 204.265,303.916 235.026 C 307.871 253.406,302.352 287.543,292.836 303.564 C 291.004 306.649,282.822 316.706,277.667 322.207 C 263.856 336.950,245.880 348.853,226.422 356.139 C 209.634 362.425,183.393 362.768,163.488 356.960 C 162.233 356.593,160.015 356.081,158.559 355.822 C 143.975 353.221,125.584 339.396,109.778 319.152 C 88.054 291.328,85.592 259.175,102.061 218.371 C 106.547 207.257,110.753 201.276,119.204 193.993 C 127.952 186.454,145.385 176.458,146.536 178.321 C 146.928 178.955,150.596 178.703,151.622 177.972 C 152.835 177.108,153.679 177.261,153.808 178.368 C 153.887 179.047,153.671 179.370,152.759 179.934 C 142.397 186.337,140.047 204.644,146.976 224.984 C 162.684 271.100,193.489 286.517,231.851 267.462 C 262.947 252.018,274.549 225.490,265.992 189.405 C 263.277 177.956,261.220 173.850,255.366 168.191 C 249.475 162.495,244.285 158.958,227.463 149.177 C 218.910 144.204,220.070 142.186,230.677 143.585 M207.251 157.968 C 232.248 163.580,240.923 204.319,221.504 224.903 C 201.412 246.202,170.764 228.600,170.764 195.762 C 170.764 171.506,188.005 153.647,207.251 157.968 " stroke="none" fill="#0c141c" fill-rule="evenodd"></path><path id="path3" d="M190.200 28.117 L 189.242 29.177 190.302 28.219 C 190.884 27.693,191.361 27.216,191.361 27.160 C 191.361 26.908,191.092 27.130,190.200 28.117 M203.608 59.156 C 204.233 60.110,204.292 60.144,204.292 59.539 C 204.292 59.295,204.016 58.922,203.679 58.712 C 203.090 58.344,203.087 58.362,203.608 59.156 M189.481 78.566 C 189.481 79.193,189.548 79.450,189.630 79.136 C 189.712 78.822,189.712 78.309,189.630 77.995 C 189.548 77.681,189.481 77.938,189.481 78.566 M209.367 79.870 C 209.367 80.497,209.434 80.754,209.516 80.440 C 209.598 80.126,209.598 79.613,209.516 79.299 C 209.434 78.985,209.367 79.242,209.367 79.870 M189.168 83.456 C 189.168 84.262,189.231 84.593,189.309 84.189 C 189.387 83.786,189.387 83.126,189.309 82.722 C 189.231 82.319,189.168 82.649,189.168 83.456 M209.710 85.901 C 209.713 86.797,209.776 87.125,209.851 86.630 C 209.926 86.134,209.924 85.401,209.846 85.000 C 209.769 84.599,209.708 85.004,209.710 85.901 M188.869 91.117 C 188.868 92.730,188.923 93.431,188.991 92.675 C 189.060 91.918,189.060 90.598,188.993 89.741 C 188.926 88.884,188.870 89.503,188.869 91.117 M210.065 96.659 C 210.066 98.631,210.119 99.396,210.184 98.358 C 210.249 97.321,210.249 95.707,210.183 94.772 C 210.117 93.837,210.064 94.686,210.065 96.659 M188.867 98.452 C 188.867 99.976,188.923 100.599,188.992 99.837 C 189.060 99.075,189.060 97.828,188.992 97.066 C 188.923 96.304,188.867 96.927,188.867 98.452 M210.044 111.654 C 210.046 112.730,210.107 113.131,210.179 112.545 C 210.252 111.959,210.250 111.079,210.176 110.589 C 210.102 110.099,210.042 110.579,210.044 111.654 M218.337 128.347 C 218.741 128.425,219.401 128.425,219.804 128.347 C 220.208 128.270,219.878 128.206,219.071 128.206 C 218.264 128.206,217.934 128.270,218.337 128.347 M193.725 134.536 C 194.038 134.618,194.552 134.618,194.866 134.536 C 195.179 134.454,194.923 134.387,194.295 134.387 C 193.667 134.387,193.411 134.454,193.725 134.536 M159.882 147.759 L 158.924 148.818 159.984 147.861 C 160.566 147.334,161.043 146.857,161.043 146.801 C 161.043 146.549,160.774 146.771,159.882 147.759 M151.065 150.097 C 151.090 151.226,151.245 151.740,151.589 151.833 C 151.927 151.924,151.959 151.880,151.693 151.690 C 151.481 151.539,151.246 150.758,151.169 149.954 L 151.030 148.492 151.065 150.097 M152.677 154.520 C 152.733 155.379,153.686 155.817,154.257 155.246 C 154.461 155.042,154.285 154.985,153.760 155.086 C 153.108 155.210,152.915 155.089,152.785 154.475 C 152.629 153.736,152.625 153.738,152.677 154.520 M201.063 157.362 C 201.469 157.440,202.056 157.437,202.367 157.355 C 202.679 157.274,202.347 157.210,201.630 157.213 C 200.913 157.217,200.658 157.284,201.063 157.362 M183.685 164.385 L 182.396 165.770 183.782 164.482 C 185.070 163.283,185.317 162.999,185.070 162.999 C 185.017 162.999,184.394 163.623,183.685 164.385 M180.746 167.319 L 179.788 168.378 180.848 167.421 C 181.430 166.894,181.907 166.417,181.907 166.361 C 181.907 166.109,181.638 166.331,180.746 167.319 M221.821 224.368 L 220.864 225.428 221.923 224.470 C 222.506 223.944,222.983 223.467,222.983 223.411 C 222.983 223.159,222.714 223.381,221.821 224.368 M219.213 226.976 L 218.256 228.036 219.315 227.078 C 219.898 226.552,220.375 226.075,220.375 226.019 C 220.375 225.767,220.106 225.989,219.213 226.976 M107.416 349.470 C 108.662 350.725,109.754 351.752,109.844 351.752 C 109.934 351.752,108.988 350.725,107.742 349.470 C 106.497 348.215,105.405 347.188,105.315 347.188 C 105.225 347.188,106.171 348.215,107.416 349.470 " stroke="none" fill="#523f1c" fill-rule="evenodd"></path><path id="path4" d="M255.746 168.541 C 256.810 169.617,257.755 170.497,257.844 170.497 C 257.934 170.497,257.136 169.617,256.072 168.541 C 255.007 167.465,254.063 166.585,253.973 166.585 C 253.883 166.585,254.681 167.465,255.746 168.541 M152.129 177.588 C 152.045 177.722,152.390 177.832,152.893 177.832 C 153.397 177.832,153.741 177.722,153.658 177.588 C 153.575 177.453,153.231 177.343,152.893 177.343 C 152.556 177.343,152.212 177.453,152.129 177.588 M146.238 178.438 C 146.382 178.813,146.799 178.958,147.631 178.924 C 148.738 178.879,148.752 178.866,147.840 178.732 C 147.302 178.654,146.676 178.435,146.447 178.246 C 146.133 177.986,146.082 178.033,146.238 178.438 M99.582 182.315 L 97.637 184.352 99.674 182.406 C 101.567 180.599,101.861 180.277,101.620 180.277 C 101.569 180.277,100.652 181.194,99.582 182.315 M150.107 181.989 L 148.818 183.374 150.204 182.085 C 151.492 180.887,151.739 180.603,151.492 180.603 C 151.439 180.603,150.816 181.227,150.107 181.989 M115.068 197.800 L 112.958 200.000 115.159 197.890 C 116.369 196.730,117.359 195.740,117.359 195.690 C 117.359 195.450,117.027 195.756,115.068 197.800 M142.863 199.185 C 142.863 199.813,142.930 200.069,143.012 199.756 C 143.094 199.442,143.094 198.928,143.012 198.615 C 142.930 198.301,142.863 198.557,142.863 199.185 M268.379 204.564 C 268.382 205.281,268.449 205.536,268.527 205.131 C 268.605 204.725,268.602 204.138,268.521 203.827 C 268.439 203.515,268.375 203.847,268.379 204.564 M304.897 243.847 C 304.897 244.654,304.961 244.984,305.039 244.580 C 305.116 244.177,305.116 243.517,305.039 243.113 C 304.961 242.710,304.897 243.040,304.897 243.847 M252.803 252.730 L 250.530 255.094 252.893 252.820 C 255.088 250.709,255.406 250.367,255.166 250.367 C 255.117 250.367,254.053 251.430,252.803 252.730 M304.902 256.072 C 304.904 256.968,304.967 257.296,305.042 256.801 C 305.117 256.305,305.115 255.572,305.038 255.171 C 304.961 254.770,304.899 255.175,304.902 256.072 M91.407 266.667 C 91.407 269.087,91.459 270.077,91.521 268.867 C 91.584 267.657,91.584 265.676,91.521 264.466 C 91.459 263.256,91.407 264.246,91.407 266.667 M196.985 275.367 C 197.298 275.449,197.812 275.449,198.126 275.367 C 198.439 275.285,198.183 275.218,197.555 275.218 C 196.927 275.218,196.671 275.285,196.985 275.367 M204.649 275.373 C 205.055 275.451,205.642 275.448,205.953 275.367 C 206.265 275.285,205.933 275.221,205.216 275.225 C 204.499 275.228,204.244 275.295,204.649 275.373 M280.501 318.908 L 279.544 319.967 280.603 319.010 C 281.186 318.483,281.663 318.007,281.663 317.950 C 281.663 317.699,281.394 317.920,280.501 318.908 M274.654 325.020 C 272.508 327.172,270.825 328.932,270.915 328.932 C 271.004 328.932,272.834 327.172,274.980 325.020 C 277.126 322.869,278.808 321.108,278.718 321.108 C 278.629 321.108,276.800 322.869,274.654 325.020 M119.641 330.725 C 120.615 331.711,121.485 332.518,121.575 332.518 C 121.665 332.518,120.941 331.711,119.967 330.725 C 118.994 329.739,118.123 328.932,118.034 328.932 C 117.944 328.932,118.668 329.739,119.641 330.725 M124.368 335.452 C 125.614 336.707,126.706 337.734,126.796 337.734 C 126.886 337.734,125.940 336.707,124.694 335.452 C 123.449 334.197,122.357 333.170,122.267 333.170 C 122.177 333.170,123.123 334.197,124.368 335.452 M184.923 360.779 C 185.236 360.861,185.750 360.861,186.064 360.779 C 186.377 360.697,186.121 360.630,185.493 360.630 C 184.866 360.630,184.609 360.697,184.923 360.779 M204.482 360.779 C 204.796 360.861,205.310 360.861,205.623 360.779 C 205.937 360.697,205.681 360.630,205.053 360.630 C 204.425 360.630,204.169 360.697,204.482 360.779 M189.976 361.116 C 190.558 361.188,191.512 361.188,192.095 361.116 C 192.677 361.044,192.200 360.985,191.035 360.985 C 189.870 360.985,189.393 361.044,189.976 361.116 M198.778 361.116 C 199.360 361.188,200.314 361.188,200.896 361.116 C 201.479 361.044,201.002 360.985,199.837 360.985 C 198.672 360.985,198.195 361.044,198.778 361.116 " stroke="none" fill="#0c4477" fill-rule="evenodd"></path></g></svg>